<?xml version="1.0" encoding="utf-8"?>
<!-- Generated by IcoMoon.io -->
<!DOCTYPE svg PUBLIC "-//W3C//DTD SVG 1.1//EN" "http://www.w3.org/Graphics/SVG/1.1/DTD/svg11.dtd">
<svg version="1.1" xmlns="http://www.w3.org/2000/svg" xmlns:xlink="http://www.w3.org/1999/xlink" width="256" height="256" viewBox="0 0 256 256">
<g id="icomoon-ignore">
	<line stroke-width="1" x1="" y1="" x2="" y2="" stroke="#449FDB" opacity=""></line>
</g>
	<path d="M213.095 65.831l-115.174-59.379c-15.782-8.307-46.886 7.744-55.821 21.875-3.981 6.323-3.699 10.88-3.699 13.465l1.421 134.080c0.090 2.855 3.687 6.681 6.745 8.576 6.387 3.917 103.168 64.32 105.894 66.035 1.472 0.922 3.226 1.344 4.941 1.344 1.459 0 2.931-0.32 4.262-0.986 2.918-1.434 4.736-4.198 4.736-7.232v-140.813c0-2.931-1.715-5.632-4.506-7.104l-104.678-58.445c1.178-2.304 5.837-7.168 14.4-11.648 9.024-4.736 15.77-2.944 17.319-2.343 0 0 100.48 53.773 103.552 55.373 3.059 1.6 3.123 1.843 3.123 4.57 0 2.739 0 133.632 0 133.632 0 6.669 6.758 9.395 11.738 9.395 4.953 0 10.253-4.864 10.253-9.395v-143.898c0-2.931-1.728-5.645-4.506-7.104z" fill="#000000"></path>
</svg>
