<?xml version="1.0" encoding="utf-8"?>
<!-- Generated by IcoMoon.io -->
<!DOCTYPE svg PUBLIC "-//W3C//DTD SVG 1.1//EN" "http://www.w3.org/Graphics/SVG/1.1/DTD/svg11.dtd">
<svg version="1.1" xmlns="http://www.w3.org/2000/svg" xmlns:xlink="http://www.w3.org/1999/xlink" width="256" height="256" viewBox="0 0 256 256">
<g id="icomoon-ignore">
	<line stroke-width="1" x1="" y1="" x2="" y2="" stroke="#449FDB" opacity=""></line>
</g>
	<path d="M109.251 204.541c0 18.767-11.597 33.598-44.44 34.794-19.246-10.947-35.373-26.738-46.727-45.716 5.922-14.624 24.423-25.762 45.579-25.529 6.005 0.063 11.602 1.029 16.686 2.675 13.977 9.716 25.25 15.788 28.081 26.862 0.528 2.241 0.82 4.552 0.82 6.914zM128 0c-36.985 0-70.299 15.693-93.666 40.775 9.233-5.113 20.135-8.16 31.725-8.16 16.767 0 64.109 0 64.109 0l-14.326 15.035h-16.828c11.874 6.803 18.188 20.812 18.188 36.253 0 14.173-7.854 25.595-18.945 34.264-10.82 8.451-12.873 11.991-12.873 19.183 0 6.136 12.93 15.274 18.875 19.734 20.704 15.528 24.895 25.296 24.895 44.718 0 19.681-17.234 39.276-46.466 45.935 14.087 5.334 29.356 8.262 45.312 8.262 70.692 0 128-57.308 128-128s-57.308-128-128-128zM192 96v32h-16v-32h-32v-16h32v-32h16v32h32v16h-32zM91.442 84.868c2.981 22.694-6.962 37.297-24.234 36.784-17.282-0.52-33.702-16.373-36.685-39.060-2.982-22.697 8.605-40.063 25.883-39.549 17.273 0.519 32.055 19.136 35.036 41.826zM55.221 160.517c-18.67 0-34.532 6.442-45.711 15.966-6.125-14.955-9.511-31.322-9.511-48.483 0-14.192 2.314-27.842 6.578-40.599 1.843 24.861 19.338 44.048 48.242 44.048 2.129 0 4.191-0.111 6.218-0.256-1.987 3.808-3.405 8.047-3.405 12.495 0 7.493 4.122 11.768 9.217 16.724-3.85 0-7.568 0.105-11.629 0.105z" fill="#fff"></path>
</svg>
