<?xml version="1.0" encoding="utf-8"?>
<!-- Generated by IcoMoon.io -->
<!DOCTYPE svg PUBLIC "-//W3C//DTD SVG 1.1//EN" "http://www.w3.org/Graphics/SVG/1.1/DTD/svg11.dtd">

<svg version="1.1" xmlns="http://www.w3.org/2000/svg" xmlns:xlink="http://www.w3.org/1999/xlink" width="1024" height="256" viewBox="0 0 1024 256">
<defs>
<g id="icon-googleplus">
	<path class="path1" d="M109.251 204.541c0 18.767-11.597 33.598-44.44 34.794-19.246-10.947-35.373-26.738-46.727-45.716 5.922-14.624 24.423-25.762 45.579-25.529 6.005 0.063 11.602 1.029 16.686 2.675 13.977 9.716 25.25 15.788 28.081 26.862 0.528 2.241 0.82 4.552 0.82 6.914zM128 0c-36.985 0-70.299 15.693-93.666 40.775 9.233-5.113 20.135-8.16 31.725-8.16 16.767 0 64.109 0 64.109 0l-14.326 15.035h-16.828c11.874 6.803 18.188 20.812 18.188 36.253 0 14.173-7.854 25.595-18.945 34.264-10.82 8.451-12.873 11.991-12.873 19.183 0 6.136 12.93 15.274 18.875 19.734 20.704 15.528 24.895 25.296 24.895 44.718 0 19.681-17.234 39.276-46.466 45.935 14.087 5.334 29.356 8.262 45.312 8.262 70.692 0 128-57.308 128-128s-57.308-128-128-128zM192 96v32h-16v-32h-32v-16h32v-32h16v32h32v16h-32zM91.442 84.868c2.981 22.694-6.962 37.297-24.234 36.784-17.282-0.52-33.702-16.373-36.685-39.060-2.982-22.697 8.605-40.063 25.883-39.549 17.273 0.519 32.055 19.136 35.036 41.826zM55.221 160.517c-18.67 0-34.532 6.442-45.711 15.966-6.125-14.955-9.511-31.322-9.511-48.483 0-14.192 2.314-27.842 6.578-40.599 1.843 24.861 19.338 44.048 48.242 44.048 2.129 0 4.191-0.111 6.218-0.256-1.987 3.808-3.405 8.047-3.405 12.495 0 7.493 4.122 11.768 9.217 16.724-3.85 0-7.568 0.105-11.629 0.105z"></path>
</g>
<g id="icon-facebook">
	<path class="path1" d="M128 0c70.692 0 128 57.307 128 128 0 65.274-48.859 119.132-112 127.007v-95.007h44l4-32h-48v-16c0-8.837 7.163-16 16-16h32v-32h-32c-26.51 0-48 21.49-48 48v16h-24v32h24v95.006c-63.141-7.874-112-61.733-112-127.007 0-70.692 57.307-128 128-128z"></path>
</g>
<g id="icon-twitter">
	<path class="path1" d="M128 0c-70.692 0-128 57.307-128 128s57.307 128 128 128 128-57.308 128-128-57.308-128-128-128zM201.56 90.272c0.073 1.627 0.111 3.264 0.111 4.909 0 50.155-38.177 107.991-107.99 107.991-21.434 0-41.384-6.284-58.181-17.053 2.969 0.352 5.99 0.531 9.054 0.531 17.782 0 34.147-6.069 47.138-16.249-16.608-0.305-30.625-11.28-35.456-26.358 2.319 0.442 4.696 0.68 7.142 0.68 3.461 0 6.815-0.464 10-1.331-17.363-3.488-30.447-18.828-30.447-37.217 0-0.16 0-0.32 0.004-0.478 5.117 2.843 10.97 4.55 17.191 4.747-10.185-6.805-16.885-18.423-16.885-31.592 0-6.956 1.872-13.476 5.139-19.081 18.72 22.963 46.687 38.073 78.231 39.657-0.647-2.779-0.983-5.675-0.983-8.651 0-20.96 16.995-37.953 37.955-37.953 10.916 0 20.781 4.609 27.704 11.985 8.645-1.702 16.768-4.861 24.103-9.21-2.834 8.863-8.852 16.301-16.688 20.998 7.678-0.917 14.992-2.958 21.798-5.976-5.088 7.612-11.523 14.296-18.94 19.648z"></path>
</g>
<g id="icon-book">
	<path class="path1" d="M213.095 65.831l-115.174-59.379c-15.782-8.307-46.886 7.744-55.821 21.875-3.981 6.323-3.699 10.88-3.699 13.465l1.421 134.080c0.090 2.855 3.687 6.681 6.745 8.576 6.387 3.917 103.168 64.32 105.894 66.035 1.472 0.922 3.226 1.344 4.941 1.344 1.459 0 2.931-0.32 4.262-0.986 2.918-1.434 4.736-4.198 4.736-7.232v-140.813c0-2.931-1.715-5.632-4.506-7.104l-104.678-58.445c1.178-2.304 5.837-7.168 14.4-11.648 9.024-4.736 15.77-2.944 17.319-2.343 0 0 100.48 53.773 103.552 55.373 3.059 1.6 3.123 1.843 3.123 4.57 0 2.739 0 133.632 0 133.632 0 6.669 6.758 9.395 11.738 9.395 4.953 0 10.253-4.864 10.253-9.395v-143.898c0-2.931-1.728-5.645-4.506-7.104z"></path>
</g>
</defs>

<g fill="#000000">
	<use xlink:href="#icon-googleplus" transform="translate(0 0)"></use>
	<use xlink:href="#icon-facebook" transform="translate(256 0)"></use>
	<use xlink:href="#icon-twitter" transform="translate(512 0)"></use>
	<use xlink:href="#icon-book" transform="translate(768 0)"></use>
</g>

</svg>
