<?xml version="1.0" encoding="utf-8"?>
<!-- Generated by IcoMoon.io -->
<!DOCTYPE svg PUBLIC "-//W3C//DTD SVG 1.1//EN" "http://www.w3.org/Graphics/SVG/1.1/DTD/svg11.dtd">
<svg version="1.1" xmlns="http://www.w3.org/2000/svg" xmlns:xlink="http://www.w3.org/1999/xlink" width="256" height="256" viewBox="0 0 256 256">
<g id="icomoon-ignore">
	<line stroke-width="1" x1="" y1="" x2="" y2="" stroke="#449FDB" opacity=""></line>
</g>
	<path d="M128 0c-70.692 0-128 57.307-128 128s57.307 128 128 128 128-57.308 128-128-57.308-128-128-128zM201.56 90.272c0.073 1.627 0.111 3.264 0.111 4.909 0 50.155-38.177 107.991-107.99 107.991-21.434 0-41.384-6.284-58.181-17.053 2.969 0.352 5.99 0.531 9.054 0.531 17.782 0 34.147-6.069 47.138-16.249-16.608-0.305-30.625-11.28-35.456-26.358 2.319 0.442 4.696 0.68 7.142 0.68 3.461 0 6.815-0.464 10-1.331-17.363-3.488-30.447-18.828-30.447-37.217 0-0.16 0-0.32 0.004-0.478 5.117 2.843 10.97 4.55 17.191 4.747-10.185-6.805-16.885-18.423-16.885-31.592 0-6.956 1.872-13.476 5.139-19.081 18.72 22.963 46.687 38.073 78.231 39.657-0.647-2.779-0.983-5.675-0.983-8.651 0-20.96 16.995-37.953 37.955-37.953 10.916 0 20.781 4.609 27.704 11.985 8.645-1.702 16.768-4.861 24.103-9.21-2.834 8.863-8.852 16.301-16.688 20.998 7.678-0.917 14.992-2.958 21.798-5.976-5.088 7.612-11.523 14.296-18.94 19.648z" fill="#fff"></path>
</svg>
